<?xml version="1.0" standalone="no"?>
<!DOCTYPE svg PUBLIC "-//W3C//DTD SVG 20010904//EN"
 "http://www.w3.org/TR/2001/REC-SVG-20010904/DTD/svg10.dtd">
<svg version="1.0" xmlns="http://www.w3.org/2000/svg"
 width="225.000000pt" height="225.000000pt" viewBox="0 0 225.000000 225.000000"
 preserveAspectRatio="xMidYMid meet">
<metadata>
Created by potrace 1.10, written by Peter Selinger 2001-2011
</metadata>
<g transform="translate(0.000000,225.000000) scale(0.100000,-0.100000)"
fill="#00ffff" stroke="none">
<path d="M894 2206 c-211 -45 -394 -145 -550 -300 -201 -202 -306 -439 -321
-727 -9 -186 22 -352 96 -514 192 -414 603 -664 1055 -642 292 15 531 120 731
321 150 150 251 331 297 528 31 133 31 373 0 506 -46 197 -148 379 -296 528
-105 104 -209 176 -342 234 -132 58 -240 80 -414 86 -125 3 -160 1 -256 -20z
m406 -11 c147 -27 281 -75 382 -137 182 -110 345 -291 430 -477 87 -189 118
-428 83 -626 -8 -44 -16 -89 -18 -100 -13 -74 -85 -236 -146 -330 -59 -91
-206 -238 -302 -303 -96 -64 -259 -134 -369 -158 -130 -29 -365 -26 -485 5
-120 31 -263 94 -355 155 -90 60 -241 208 -295 291 -160 243 -221 541 -165
810 49 241 130 394 295 560 173 174 346 265 590 310 79 14 278 15 355 0z"/>
<path d="M977 2068 c-116 -21 -187 -42 -257 -75 -245 -119 -432 -337 -512
-598 -26 -84 -32 -122 -36 -232 -2 -73 -1 -141 3 -150 4 -10 8 -31 10 -48 19
-218 191 -486 406 -630 85 -57 224 -125 256 -125 33 0 42 27 42 128 0 117 -3
120 -111 120 -116 0 -157 18 -193 85 -29 53 -84 129 -97 135 -5 2 -8 8 -8 13
0 22 28 4 86 -56 89 -92 126 -109 223 -102 95 6 113 14 174 80 68 75 65 84
-48 111 -145 36 -262 122 -315 232 -30 62 -37 181 -15 266 9 35 33 90 53 123
38 59 38 61 25 105 -18 58 -14 217 4 236 9 9 25 11 46 7 47 -8 148 -59 184
-93 l31 -29 54 16 c75 24 314 24 377 0 47 -19 45 -19 117 35 56 42 120 68 169
68 29 0 33 -4 39 -32 8 -45 8 -137 0 -173 -15 -66 -9 -109 24 -159 42 -65 55
-132 50 -252 -4 -93 -6 -102 -38 -149 -74 -107 -165 -168 -310 -205 -40 -10
-77 -23 -82 -28 -6 -6 4 -27 27 -57 71 -94 86 -136 92 -261 4 -80 10 -118 20
-126 33 -27 226 94 346 217 42 43 77 82 77 86 0 4 11 21 25 37 56 67 155 310
141 347 -3 8 -1 17 5 21 5 3 9 13 8 22 -1 10 1 25 6 35 4 10 5 80 2 155 -6
151 -27 238 -91 371 -91 191 -270 366 -468 459 -155 73 -373 101 -541 70z
m388 -37 c250 -66 481 -257 600 -495 65 -131 87 -223 92 -390 l5 -138 -43 7
c-49 9 -180 9 -220 0 -27 -6 -27 -6 -18 32 5 21 9 54 9 74 0 60 -37 180 -70
227 -28 40 -31 51 -25 86 21 124 23 163 14 210 -13 71 -23 78 -89 66 -69 -13
-126 -41 -173 -84 l-37 -34 -48 16 c-66 21 -319 22 -383 0 l-45 -15 -38 33
c-50 43 -108 71 -176 84 -45 8 -57 8 -69 -5 -21 -21 -27 -150 -11 -237 11 -63
10 -69 -9 -97 -12 -17 -34 -56 -49 -88 -24 -52 -27 -69 -27 -165 0 -91 -2
-107 -15 -104 -49 14 -203 16 -274 3 l-78 -14 5 141 c6 169 28 262 92 391 132
264 373 450 664 511 97 20 313 12 416 -15z m-807 -1036 c6 -3 12 -10 12 -17 0
-10 -26 -12 -110 -10 -109 3 -191 -12 -228 -41 -16 -13 -20 -8 -28 30 l-6 31
58 7 c33 4 64 8 69 10 12 4 215 -5 233 -10z m1461 -1 c17 -4 31 -13 31 -21 0
-11 -9 -13 -47 -6 -27 4 -92 8 -145 7 -90 -1 -124 8 -80 19 27 7 206 8 241 1z
m-29 -45 c30 -6 50 -16 50 -24 0 -8 -13 -52 -28 -98 -76 -225 -242 -419 -460
-535 l-80 -42 -3 118 c-4 112 -6 122 -39 187 -19 38 -50 84 -69 102 -33 32
-34 33 -10 33 44 0 143 30 207 63 72 36 141 99 178 163 l26 44 88 0 c49 0 112
-5 140 -11z m-1385 -43 c57 -97 193 -184 326 -208 35 -6 65 -12 66 -13 6 -4
-94 -104 -112 -113 -35 -17 -139 -24 -185 -12 -32 9 -60 29 -114 85 -54 55
-81 76 -114 84 -23 7 -47 9 -52 6 -5 -3 14 -29 43 -58 28 -29 67 -80 85 -114
35 -66 77 -108 120 -121 15 -4 66 -7 114 -7 l88 0 0 -107 0 -108 -63 23 c-205
75 -387 232 -503 434 -40 69 -84 184 -84 217 0 7 28 22 63 34 49 16 87 21 179
21 l117 1 26 -44z"/>
<path d="M1132 441 c-19 -11 -29 -65 -31 -161 -1 -65 2 -86 15 -101 22 -24 65
-24 95 0 23 18 24 24 21 128 -3 80 -8 112 -19 126 -17 18 -59 22 -81 8z m62
-17 c13 -5 16 -25 16 -120 l0 -114 -45 0 -45 0 0 101 c0 55 5 109 10 120 11
19 35 24 64 13z"/>
<path d="M951 374 c-17 -22 -21 -41 -21 -99 l0 -73 34 -16 c77 -36 96 -19 96
89 0 72 -3 84 -23 103 -31 29 -61 28 -86 -4z m77 -6 c7 -7 12 -44 12 -96 l0
-84 -31 6 c-17 3 -38 6 -45 6 -17 0 -20 130 -4 161 12 21 50 25 68 7z"/>
<path d="M1300 378 c-18 -20 -20 -33 -18 -103 l3 -80 33 -3 c19 -2 44 4 58 13
22 14 24 22 24 90 0 65 -3 76 -22 89 -31 22 -54 20 -78 -6z m75 -22 c11 -16
15 -41 13 -77 -3 -53 -3 -53 -45 -65 l-43 -13 0 78 c0 46 5 82 12 89 19 19 46
14 63 -12z"/>
</g>
</svg>
